<mxfile host="app.diagrams.net" agent="Mozilla/5.0 (Windows NT 10.0; Win64; x64) AppleWebKit/537.36 (KHTML, like Gecko) Chrome/130.0.0.0 Safari/537.36 Edg/130.0.0.0" version="24.8.3">
  <diagram id="C5RBs43oDa-KdzZeNtuy" name="Page-1">
    <mxGraphModel dx="4159" dy="1514" grid="1" gridSize="10" guides="1" tooltips="1" connect="1" arrows="1" fold="1" page="1" pageScale="1" pageWidth="827" pageHeight="1169" math="0" shadow="0">
      <root>
        <mxCell id="WIyWlLk6GJQsqaUBKTNV-0" />
        <mxCell id="WIyWlLk6GJQsqaUBKTNV-1" parent="WIyWlLk6GJQsqaUBKTNV-0" />
        <mxCell id="B2IowBVkWe_c0tPVWHjE-3" value="" style="edgeStyle=orthogonalEdgeStyle;rounded=0;orthogonalLoop=1;jettySize=auto;html=1;" edge="1" parent="WIyWlLk6GJQsqaUBKTNV-1" source="B2IowBVkWe_c0tPVWHjE-0" target="B2IowBVkWe_c0tPVWHjE-2">
          <mxGeometry relative="1" as="geometry" />
        </mxCell>
        <mxCell id="B2IowBVkWe_c0tPVWHjE-4" value="Anvi-script-reformat-fasta" style="edgeLabel;html=1;align=center;verticalAlign=middle;resizable=0;points=[];" vertex="1" connectable="0" parent="B2IowBVkWe_c0tPVWHjE-3">
          <mxGeometry x="-0.08" y="2" relative="1" as="geometry">
            <mxPoint as="offset" />
          </mxGeometry>
        </mxCell>
        <mxCell id="B2IowBVkWe_c0tPVWHjE-0" value="&lt;font style=&quot;font-size: 14px;&quot;&gt;Final Assembly&lt;/font&gt;" style="shape=hexagon;perimeter=hexagonPerimeter2;whiteSpace=wrap;html=1;fixedSize=1;fillColor=#00FF00;strokeColor=#00FF00;" vertex="1" parent="WIyWlLk6GJQsqaUBKTNV-1">
          <mxGeometry x="210" y="40" width="120" height="80" as="geometry" />
        </mxCell>
        <mxCell id="B2IowBVkWe_c0tPVWHjE-8" value="" style="edgeStyle=orthogonalEdgeStyle;rounded=0;orthogonalLoop=1;jettySize=auto;html=1;strokeColor=#FF3333;fillColor=#FF3333;" edge="1" parent="WIyWlLk6GJQsqaUBKTNV-1" source="B2IowBVkWe_c0tPVWHjE-1">
          <mxGeometry relative="1" as="geometry">
            <mxPoint x="510" y="230" as="targetPoint" />
          </mxGeometry>
        </mxCell>
        <mxCell id="B2IowBVkWe_c0tPVWHjE-126" value="" style="edgeStyle=orthogonalEdgeStyle;rounded=0;orthogonalLoop=1;jettySize=auto;html=1;strokeColor=#CC0000;" edge="1" parent="WIyWlLk6GJQsqaUBKTNV-1" source="B2IowBVkWe_c0tPVWHjE-1">
          <mxGeometry relative="1" as="geometry">
            <mxPoint x="50" y="1200" as="targetPoint" />
            <Array as="points">
              <mxPoint x="590" y="20" />
              <mxPoint x="-290" y="20" />
              <mxPoint x="-290" y="1200" />
            </Array>
          </mxGeometry>
        </mxCell>
        <mxCell id="B2IowBVkWe_c0tPVWHjE-1" value="&lt;font style=&quot;font-size: 14px;&quot;&gt;Raw Reads&lt;/font&gt;" style="shape=parallelogram;perimeter=parallelogramPerimeter;whiteSpace=wrap;html=1;fixedSize=1;strokeColor=#FF3333;fillColor=#FF3333;" vertex="1" parent="WIyWlLk6GJQsqaUBKTNV-1">
          <mxGeometry x="530" y="140" width="120" height="60" as="geometry" />
        </mxCell>
        <mxCell id="B2IowBVkWe_c0tPVWHjE-6" value="" style="edgeStyle=orthogonalEdgeStyle;rounded=0;orthogonalLoop=1;jettySize=auto;html=1;" edge="1" parent="WIyWlLk6GJQsqaUBKTNV-1" source="B2IowBVkWe_c0tPVWHjE-2">
          <mxGeometry relative="1" as="geometry">
            <mxPoint x="620" y="260" as="targetPoint" />
          </mxGeometry>
        </mxCell>
        <mxCell id="B2IowBVkWe_c0tPVWHjE-9" value="Reads aligned&lt;div&gt;with&amp;nbsp;&lt;/div&gt;&lt;div&gt;Minimap2&lt;/div&gt;" style="edgeLabel;html=1;align=center;verticalAlign=middle;resizable=0;points=[];" vertex="1" connectable="0" parent="B2IowBVkWe_c0tPVWHjE-6">
          <mxGeometry x="-0.2653" y="-4" relative="1" as="geometry">
            <mxPoint x="69" y="-4" as="offset" />
          </mxGeometry>
        </mxCell>
        <mxCell id="B2IowBVkWe_c0tPVWHjE-30" value="" style="edgeStyle=orthogonalEdgeStyle;rounded=0;orthogonalLoop=1;jettySize=auto;html=1;strokeColor=#00FF00;" edge="1" parent="WIyWlLk6GJQsqaUBKTNV-1" source="B2IowBVkWe_c0tPVWHjE-2">
          <mxGeometry relative="1" as="geometry">
            <mxPoint x="90" y="370" as="targetPoint" />
            <Array as="points">
              <mxPoint x="90" y="260" />
            </Array>
          </mxGeometry>
        </mxCell>
        <mxCell id="B2IowBVkWe_c0tPVWHjE-31" value="anvi-run-hmms" style="edgeLabel;html=1;align=center;verticalAlign=middle;resizable=0;points=[];" vertex="1" connectable="0" parent="B2IowBVkWe_c0tPVWHjE-30">
          <mxGeometry x="-0.0355" y="1" relative="1" as="geometry">
            <mxPoint x="-9" y="39" as="offset" />
          </mxGeometry>
        </mxCell>
        <mxCell id="B2IowBVkWe_c0tPVWHjE-2" value="Reformatted Final&lt;div&gt;Assembly&lt;/div&gt;" style="shape=hexagon;perimeter=hexagonPerimeter2;whiteSpace=wrap;html=1;fixedSize=1;fillColor=#FFFFFF;strokeColor=#00FF00;" vertex="1" parent="WIyWlLk6GJQsqaUBKTNV-1">
          <mxGeometry x="210" y="220" width="120" height="80" as="geometry" />
        </mxCell>
        <mxCell id="B2IowBVkWe_c0tPVWHjE-12" value="" style="edgeStyle=orthogonalEdgeStyle;rounded=0;orthogonalLoop=1;jettySize=auto;html=1;entryX=0;entryY=0.5;entryDx=0;entryDy=0;" edge="1" parent="WIyWlLk6GJQsqaUBKTNV-1" target="B2IowBVkWe_c0tPVWHjE-14">
          <mxGeometry relative="1" as="geometry">
            <mxPoint x="610" y="259.5" as="sourcePoint" />
            <mxPoint x="740" y="260" as="targetPoint" />
          </mxGeometry>
        </mxCell>
        <mxCell id="B2IowBVkWe_c0tPVWHjE-13" value="&lt;div&gt;Samtools&lt;/div&gt;" style="edgeLabel;html=1;align=center;verticalAlign=middle;resizable=0;points=[];" vertex="1" connectable="0" parent="B2IowBVkWe_c0tPVWHjE-12">
          <mxGeometry x="-0.1724" relative="1" as="geometry">
            <mxPoint as="offset" />
          </mxGeometry>
        </mxCell>
        <mxCell id="B2IowBVkWe_c0tPVWHjE-90" value="" style="edgeStyle=orthogonalEdgeStyle;rounded=0;orthogonalLoop=1;jettySize=auto;html=1;entryX=0.732;entryY=0.077;entryDx=0;entryDy=0;entryPerimeter=0;" edge="1" parent="WIyWlLk6GJQsqaUBKTNV-1" source="B2IowBVkWe_c0tPVWHjE-14" target="B2IowBVkWe_c0tPVWHjE-77">
          <mxGeometry relative="1" as="geometry">
            <mxPoint x="980" y="260" as="targetPoint" />
          </mxGeometry>
        </mxCell>
        <mxCell id="B2IowBVkWe_c0tPVWHjE-14" value="All reads&amp;nbsp;&lt;div&gt;alignment BAM file&lt;/div&gt;" style="rounded=1;whiteSpace=wrap;html=1;strokeColor=#0000FF;" vertex="1" parent="WIyWlLk6GJQsqaUBKTNV-1">
          <mxGeometry x="760" y="230" width="120" height="60" as="geometry" />
        </mxCell>
        <mxCell id="B2IowBVkWe_c0tPVWHjE-22" value="" style="edgeStyle=orthogonalEdgeStyle;rounded=0;orthogonalLoop=1;jettySize=auto;html=1;entryX=0.5;entryY=0;entryDx=0;entryDy=0;strokeColor=#00FF00;" edge="1" parent="WIyWlLk6GJQsqaUBKTNV-1" target="B2IowBVkWe_c0tPVWHjE-25">
          <mxGeometry relative="1" as="geometry">
            <mxPoint x="90" y="360" as="sourcePoint" />
            <mxPoint x="380" y="500" as="targetPoint" />
            <Array as="points">
              <mxPoint x="90" y="360" />
              <mxPoint x="90" y="450" />
            </Array>
          </mxGeometry>
        </mxCell>
        <mxCell id="B2IowBVkWe_c0tPVWHjE-24" value="anvi-run-ncbi-cogs" style="edgeLabel;html=1;align=center;verticalAlign=middle;resizable=0;points=[];" vertex="1" connectable="0" parent="B2IowBVkWe_c0tPVWHjE-22">
          <mxGeometry x="-0.4043" relative="1" as="geometry">
            <mxPoint y="-13" as="offset" />
          </mxGeometry>
        </mxCell>
        <mxCell id="B2IowBVkWe_c0tPVWHjE-95" value="" style="edgeStyle=orthogonalEdgeStyle;rounded=0;orthogonalLoop=1;jettySize=auto;html=1;entryX=0.5;entryY=0;entryDx=0;entryDy=0;entryPerimeter=0;strokeColor=#00FF00;" edge="1" parent="WIyWlLk6GJQsqaUBKTNV-1" source="B2IowBVkWe_c0tPVWHjE-25" target="B2IowBVkWe_c0tPVWHjE-93">
          <mxGeometry relative="1" as="geometry">
            <mxPoint x="90" y="639.9999999999998" as="targetPoint" />
          </mxGeometry>
        </mxCell>
        <mxCell id="B2IowBVkWe_c0tPVWHjE-97" value="" style="edgeStyle=orthogonalEdgeStyle;rounded=0;orthogonalLoop=1;jettySize=auto;html=1;" edge="1" parent="WIyWlLk6GJQsqaUBKTNV-1" source="B2IowBVkWe_c0tPVWHjE-25" target="B2IowBVkWe_c0tPVWHjE-96">
          <mxGeometry relative="1" as="geometry" />
        </mxCell>
        <mxCell id="B2IowBVkWe_c0tPVWHjE-122" value="CONCOCT&lt;div&gt;Auto-Binning&lt;/div&gt;" style="edgeLabel;html=1;align=center;verticalAlign=middle;resizable=0;points=[];" vertex="1" connectable="0" parent="B2IowBVkWe_c0tPVWHjE-97">
          <mxGeometry x="0.0213" relative="1" as="geometry">
            <mxPoint x="-1" as="offset" />
          </mxGeometry>
        </mxCell>
        <mxCell id="B2IowBVkWe_c0tPVWHjE-25" value="Curated&amp;nbsp;&lt;div&gt;Contigs-DB&lt;/div&gt;" style="shape=hexagon;perimeter=hexagonPerimeter2;whiteSpace=wrap;html=1;fixedSize=1;strokeColor=#00FF00;" vertex="1" parent="WIyWlLk6GJQsqaUBKTNV-1">
          <mxGeometry x="30" y="470" width="120" height="80" as="geometry" />
        </mxCell>
        <mxCell id="B2IowBVkWe_c0tPVWHjE-26" value="" style="edgeStyle=orthogonalEdgeStyle;rounded=0;orthogonalLoop=1;jettySize=auto;html=1;entryX=0;entryY=0.5;entryDx=0;entryDy=0;exitX=1;exitY=0.75;exitDx=0;exitDy=0;" edge="1" parent="WIyWlLk6GJQsqaUBKTNV-1" source="B2IowBVkWe_c0tPVWHjE-2">
          <mxGeometry relative="1" as="geometry">
            <mxPoint x="310" y="310" as="sourcePoint" />
            <mxPoint x="610" y="480" as="targetPoint" />
            <Array as="points">
              <mxPoint x="321" y="310" />
              <mxPoint x="401" y="310" />
              <mxPoint x="401" y="480" />
            </Array>
          </mxGeometry>
        </mxCell>
        <mxCell id="B2IowBVkWe_c0tPVWHjE-36" value="Reads aligned&amp;nbsp;&lt;div&gt;with&amp;nbsp;&lt;/div&gt;&lt;div&gt;Minimap2&lt;/div&gt;" style="edgeLabel;html=1;align=center;verticalAlign=middle;resizable=0;points=[];" vertex="1" connectable="0" parent="B2IowBVkWe_c0tPVWHjE-26">
          <mxGeometry x="0.6" y="-1" relative="1" as="geometry">
            <mxPoint as="offset" />
          </mxGeometry>
        </mxCell>
        <mxCell id="B2IowBVkWe_c0tPVWHjE-34" value="" style="edgeStyle=orthogonalEdgeStyle;rounded=0;orthogonalLoop=1;jettySize=auto;html=1;" edge="1" parent="WIyWlLk6GJQsqaUBKTNV-1" source="B2IowBVkWe_c0tPVWHjE-32">
          <mxGeometry relative="1" as="geometry">
            <mxPoint x="515" y="460" as="targetPoint" />
          </mxGeometry>
        </mxCell>
        <mxCell id="B2IowBVkWe_c0tPVWHjE-32" value="&lt;div&gt;Porifera&amp;nbsp;&lt;/div&gt;&lt;div&gt;Reads&lt;/div&gt;" style="ellipse;whiteSpace=wrap;html=1;rounded=1;strokeColor=#FF9999;fillColor=#FFFFFF;" vertex="1" parent="WIyWlLk6GJQsqaUBKTNV-1">
          <mxGeometry x="540" y="360" width="110" height="90" as="geometry" />
        </mxCell>
        <mxCell id="B2IowBVkWe_c0tPVWHjE-39" value="" style="edgeStyle=orthogonalEdgeStyle;rounded=0;orthogonalLoop=1;jettySize=auto;html=1;" edge="1" parent="WIyWlLk6GJQsqaUBKTNV-1" target="B2IowBVkWe_c0tPVWHjE-38">
          <mxGeometry relative="1" as="geometry">
            <mxPoint x="610" y="480" as="sourcePoint" />
          </mxGeometry>
        </mxCell>
        <mxCell id="B2IowBVkWe_c0tPVWHjE-40" value="Samtools" style="edgeLabel;html=1;align=center;verticalAlign=middle;resizable=0;points=[];" vertex="1" connectable="0" parent="B2IowBVkWe_c0tPVWHjE-39">
          <mxGeometry x="-0.216" relative="1" as="geometry">
            <mxPoint as="offset" />
          </mxGeometry>
        </mxCell>
        <mxCell id="B2IowBVkWe_c0tPVWHjE-82" value="" style="edgeStyle=orthogonalEdgeStyle;rounded=0;orthogonalLoop=1;jettySize=auto;html=1;entryX=0.5;entryY=0;entryDx=0;entryDy=0;" edge="1" parent="WIyWlLk6GJQsqaUBKTNV-1" source="B2IowBVkWe_c0tPVWHjE-38" target="B2IowBVkWe_c0tPVWHjE-77">
          <mxGeometry relative="1" as="geometry">
            <mxPoint x="990" y="480" as="targetPoint" />
            <Array as="points">
              <mxPoint x="1130" y="480" />
            </Array>
          </mxGeometry>
        </mxCell>
        <mxCell id="B2IowBVkWe_c0tPVWHjE-38" value="Porifera&lt;div&gt;alignment BAM file&lt;/div&gt;" style="rounded=1;whiteSpace=wrap;html=1;strokeColor=#0000FF;" vertex="1" parent="WIyWlLk6GJQsqaUBKTNV-1">
          <mxGeometry x="770" y="450" width="120" height="60" as="geometry" />
        </mxCell>
        <mxCell id="B2IowBVkWe_c0tPVWHjE-42" value="" style="edgeStyle=orthogonalEdgeStyle;rounded=0;orthogonalLoop=1;jettySize=auto;html=1;exitX=1;exitY=0.75;exitDx=0;exitDy=0;" edge="1" parent="WIyWlLk6GJQsqaUBKTNV-1">
          <mxGeometry relative="1" as="geometry">
            <mxPoint x="300" y="300" as="sourcePoint" />
            <mxPoint x="600" y="670" as="targetPoint" />
            <Array as="points">
              <mxPoint x="300" y="333" />
              <mxPoint x="380" y="333" />
              <mxPoint x="380" y="670" />
            </Array>
          </mxGeometry>
        </mxCell>
        <mxCell id="B2IowBVkWe_c0tPVWHjE-43" value="Reads aligned&amp;nbsp;&lt;div&gt;with&amp;nbsp;&lt;/div&gt;&lt;div&gt;Minimap2&lt;/div&gt;" style="edgeLabel;html=1;align=center;verticalAlign=middle;resizable=0;points=[];" vertex="1" connectable="0" parent="B2IowBVkWe_c0tPVWHjE-42">
          <mxGeometry x="0.6" y="-1" relative="1" as="geometry">
            <mxPoint x="44" as="offset" />
          </mxGeometry>
        </mxCell>
        <mxCell id="B2IowBVkWe_c0tPVWHjE-46" value="" style="edgeStyle=orthogonalEdgeStyle;rounded=0;orthogonalLoop=1;jettySize=auto;html=1;" edge="1" parent="WIyWlLk6GJQsqaUBKTNV-1" source="B2IowBVkWe_c0tPVWHjE-44">
          <mxGeometry relative="1" as="geometry">
            <mxPoint x="515" y="650" as="targetPoint" />
          </mxGeometry>
        </mxCell>
        <mxCell id="B2IowBVkWe_c0tPVWHjE-44" value="Reads from a Non Porifera&amp;nbsp;&lt;div&gt;taxon #1&lt;/div&gt;" style="ellipse;whiteSpace=wrap;html=1;strokeColor=#7EA6E0;" vertex="1" parent="WIyWlLk6GJQsqaUBKTNV-1">
          <mxGeometry x="540" y="560" width="120" height="80" as="geometry" />
        </mxCell>
        <mxCell id="B2IowBVkWe_c0tPVWHjE-47" value="" style="edgeStyle=orthogonalEdgeStyle;rounded=0;orthogonalLoop=1;jettySize=auto;html=1;entryX=0;entryY=0.5;entryDx=0;entryDy=0;" edge="1" parent="WIyWlLk6GJQsqaUBKTNV-1" target="B2IowBVkWe_c0tPVWHjE-49">
          <mxGeometry relative="1" as="geometry">
            <mxPoint x="600" y="670" as="sourcePoint" />
            <mxPoint x="750" y="670" as="targetPoint" />
          </mxGeometry>
        </mxCell>
        <mxCell id="B2IowBVkWe_c0tPVWHjE-48" value="Samtools" style="edgeLabel;html=1;align=center;verticalAlign=middle;resizable=0;points=[];" vertex="1" connectable="0" parent="B2IowBVkWe_c0tPVWHjE-47">
          <mxGeometry x="-0.216" relative="1" as="geometry">
            <mxPoint as="offset" />
          </mxGeometry>
        </mxCell>
        <mxCell id="B2IowBVkWe_c0tPVWHjE-80" value="" style="edgeStyle=orthogonalEdgeStyle;rounded=0;orthogonalLoop=1;jettySize=auto;html=1;" edge="1" parent="WIyWlLk6GJQsqaUBKTNV-1" source="B2IowBVkWe_c0tPVWHjE-49" target="B2IowBVkWe_c0tPVWHjE-77">
          <mxGeometry relative="1" as="geometry">
            <mxPoint x="990" y="670" as="targetPoint" />
            <Array as="points">
              <mxPoint x="1100" y="670" />
            </Array>
          </mxGeometry>
        </mxCell>
        <mxCell id="B2IowBVkWe_c0tPVWHjE-49" value="taxon #1&lt;br&gt;&lt;div&gt;alignment BAM file&lt;/div&gt;" style="rounded=1;whiteSpace=wrap;html=1;strokeColor=#0000FF;" vertex="1" parent="WIyWlLk6GJQsqaUBKTNV-1">
          <mxGeometry x="770" y="640" width="120" height="60" as="geometry" />
        </mxCell>
        <mxCell id="B2IowBVkWe_c0tPVWHjE-50" value="" style="edgeStyle=orthogonalEdgeStyle;rounded=0;orthogonalLoop=1;jettySize=auto;html=1;exitX=0.625;exitY=1;exitDx=0;exitDy=0;" edge="1" parent="WIyWlLk6GJQsqaUBKTNV-1" source="B2IowBVkWe_c0tPVWHjE-2">
          <mxGeometry relative="1" as="geometry">
            <mxPoint x="278.03999999999996" y="320" as="sourcePoint" />
            <mxPoint x="600" y="850" as="targetPoint" />
            <Array as="points">
              <mxPoint x="285" y="400" />
              <mxPoint x="360" y="400" />
              <mxPoint x="360" y="850" />
            </Array>
          </mxGeometry>
        </mxCell>
        <mxCell id="B2IowBVkWe_c0tPVWHjE-51" value="Reads aligned&amp;nbsp;&lt;div&gt;with&amp;nbsp;&lt;/div&gt;&lt;div&gt;Minimap2&lt;/div&gt;" style="edgeLabel;html=1;align=center;verticalAlign=middle;resizable=0;points=[];" vertex="1" connectable="0" parent="B2IowBVkWe_c0tPVWHjE-50">
          <mxGeometry x="0.6" y="-1" relative="1" as="geometry">
            <mxPoint x="85" as="offset" />
          </mxGeometry>
        </mxCell>
        <mxCell id="B2IowBVkWe_c0tPVWHjE-54" value="" style="edgeStyle=orthogonalEdgeStyle;rounded=0;orthogonalLoop=1;jettySize=auto;html=1;" edge="1" parent="WIyWlLk6GJQsqaUBKTNV-1" source="B2IowBVkWe_c0tPVWHjE-52">
          <mxGeometry relative="1" as="geometry">
            <mxPoint x="515" y="830" as="targetPoint" />
          </mxGeometry>
        </mxCell>
        <mxCell id="B2IowBVkWe_c0tPVWHjE-52" value="Reads from Non Porifera&lt;div&gt;&amp;nbsp;taxon #2&lt;/div&gt;" style="ellipse;whiteSpace=wrap;html=1;strokeColor=#FF00FF;" vertex="1" parent="WIyWlLk6GJQsqaUBKTNV-1">
          <mxGeometry x="535" y="730" width="120" height="80" as="geometry" />
        </mxCell>
        <mxCell id="B2IowBVkWe_c0tPVWHjE-58" value="" style="edgeStyle=orthogonalEdgeStyle;rounded=0;orthogonalLoop=1;jettySize=auto;html=1;entryX=0;entryY=0.5;entryDx=0;entryDy=0;" edge="1" parent="WIyWlLk6GJQsqaUBKTNV-1" target="B2IowBVkWe_c0tPVWHjE-60">
          <mxGeometry relative="1" as="geometry">
            <mxPoint x="600" y="850" as="sourcePoint" />
            <mxPoint x="760" y="850" as="targetPoint" />
          </mxGeometry>
        </mxCell>
        <mxCell id="B2IowBVkWe_c0tPVWHjE-59" value="Samtools" style="edgeLabel;html=1;align=center;verticalAlign=middle;resizable=0;points=[];" vertex="1" connectable="0" parent="B2IowBVkWe_c0tPVWHjE-58">
          <mxGeometry x="-0.216" relative="1" as="geometry">
            <mxPoint as="offset" />
          </mxGeometry>
        </mxCell>
        <mxCell id="B2IowBVkWe_c0tPVWHjE-78" value="" style="edgeStyle=orthogonalEdgeStyle;rounded=0;orthogonalLoop=1;jettySize=auto;html=1;" edge="1" parent="WIyWlLk6GJQsqaUBKTNV-1" source="B2IowBVkWe_c0tPVWHjE-112" target="B2IowBVkWe_c0tPVWHjE-77">
          <mxGeometry relative="1" as="geometry">
            <Array as="points">
              <mxPoint x="1040" y="850" />
              <mxPoint x="1040" y="850" />
            </Array>
          </mxGeometry>
        </mxCell>
        <mxCell id="B2IowBVkWe_c0tPVWHjE-60" value="taxon #2&lt;br&gt;&lt;div&gt;alignment BAM file&lt;/div&gt;" style="rounded=1;whiteSpace=wrap;html=1;strokeColor=#0000FF;" vertex="1" parent="WIyWlLk6GJQsqaUBKTNV-1">
          <mxGeometry x="770" y="820" width="120" height="60" as="geometry" />
        </mxCell>
        <mxCell id="B2IowBVkWe_c0tPVWHjE-61" value="" style="edgeStyle=orthogonalEdgeStyle;rounded=0;orthogonalLoop=1;jettySize=auto;html=1;exitX=0.5;exitY=1;exitDx=0;exitDy=0;" edge="1" parent="WIyWlLk6GJQsqaUBKTNV-1">
          <mxGeometry relative="1" as="geometry">
            <mxPoint x="260" y="300" as="sourcePoint" />
            <mxPoint x="610" y="1050" as="targetPoint" />
            <Array as="points">
              <mxPoint x="260" y="470" />
              <mxPoint x="335" y="470" />
              <mxPoint x="335" y="1050" />
              <mxPoint x="610" y="1050" />
            </Array>
          </mxGeometry>
        </mxCell>
        <mxCell id="B2IowBVkWe_c0tPVWHjE-62" value="Reads aligned&amp;nbsp;&lt;div&gt;with&amp;nbsp;&lt;/div&gt;&lt;div&gt;Minimap2&lt;/div&gt;" style="edgeLabel;html=1;align=center;verticalAlign=middle;resizable=0;points=[];" vertex="1" connectable="0" parent="B2IowBVkWe_c0tPVWHjE-61">
          <mxGeometry x="0.6" y="-1" relative="1" as="geometry">
            <mxPoint x="125" y="-1" as="offset" />
          </mxGeometry>
        </mxCell>
        <mxCell id="B2IowBVkWe_c0tPVWHjE-65" value="" style="edgeStyle=orthogonalEdgeStyle;rounded=0;orthogonalLoop=1;jettySize=auto;html=1;" edge="1" parent="WIyWlLk6GJQsqaUBKTNV-1" source="B2IowBVkWe_c0tPVWHjE-63">
          <mxGeometry relative="1" as="geometry">
            <mxPoint x="515" y="1030" as="targetPoint" />
          </mxGeometry>
        </mxCell>
        <mxCell id="B2IowBVkWe_c0tPVWHjE-63" value="Reads belonging to&amp;nbsp;&lt;div&gt;Eukaryotes&lt;/div&gt;&lt;div&gt;&amp;nbsp;(likely Porifera)&lt;/div&gt;" style="ellipse;whiteSpace=wrap;html=1;fillColor=#FFFFFF;strokeColor=#B5739D;" vertex="1" parent="WIyWlLk6GJQsqaUBKTNV-1">
          <mxGeometry x="535" y="930" width="130" height="75" as="geometry" />
        </mxCell>
        <mxCell id="B2IowBVkWe_c0tPVWHjE-66" value="" style="edgeStyle=orthogonalEdgeStyle;rounded=0;orthogonalLoop=1;jettySize=auto;html=1;entryX=0;entryY=0.5;entryDx=0;entryDy=0;" edge="1" parent="WIyWlLk6GJQsqaUBKTNV-1">
          <mxGeometry relative="1" as="geometry">
            <mxPoint x="610" y="1050" as="sourcePoint" />
            <mxPoint x="770" y="1050" as="targetPoint" />
            <Array as="points">
              <mxPoint x="670" y="1050" />
              <mxPoint x="670" y="1050" />
            </Array>
          </mxGeometry>
        </mxCell>
        <mxCell id="B2IowBVkWe_c0tPVWHjE-67" value="Samtools" style="edgeLabel;html=1;align=center;verticalAlign=middle;resizable=0;points=[];" vertex="1" connectable="0" parent="B2IowBVkWe_c0tPVWHjE-66">
          <mxGeometry x="-0.216" relative="1" as="geometry">
            <mxPoint x="-13" as="offset" />
          </mxGeometry>
        </mxCell>
        <mxCell id="B2IowBVkWe_c0tPVWHjE-86" value="" style="edgeStyle=orthogonalEdgeStyle;rounded=0;orthogonalLoop=1;jettySize=auto;html=1;entryX=0.288;entryY=1;entryDx=0;entryDy=0;entryPerimeter=0;" edge="1" parent="WIyWlLk6GJQsqaUBKTNV-1" source="B2IowBVkWe_c0tPVWHjE-68" target="B2IowBVkWe_c0tPVWHjE-77">
          <mxGeometry relative="1" as="geometry">
            <mxPoint x="990" y="1050" as="targetPoint" />
          </mxGeometry>
        </mxCell>
        <mxCell id="B2IowBVkWe_c0tPVWHjE-68" value="Eukaryotic Reads&lt;br&gt;&lt;div&gt;alignment BAM file&lt;/div&gt;" style="rounded=1;whiteSpace=wrap;html=1;strokeColor=#0000FF;" vertex="1" parent="WIyWlLk6GJQsqaUBKTNV-1">
          <mxGeometry x="770" y="1020" width="120" height="60" as="geometry" />
        </mxCell>
        <mxCell id="B2IowBVkWe_c0tPVWHjE-69" value="" style="edgeStyle=orthogonalEdgeStyle;rounded=0;orthogonalLoop=1;jettySize=auto;html=1;exitX=0.5;exitY=1;exitDx=0;exitDy=0;" edge="1" parent="WIyWlLk6GJQsqaUBKTNV-1">
          <mxGeometry relative="1" as="geometry">
            <mxPoint x="230" y="300" as="sourcePoint" />
            <mxPoint x="610" y="1270" as="targetPoint" />
            <Array as="points">
              <mxPoint x="230" y="500" />
              <mxPoint x="305" y="500" />
              <mxPoint x="305" y="1270" />
            </Array>
          </mxGeometry>
        </mxCell>
        <mxCell id="B2IowBVkWe_c0tPVWHjE-70" value="Reads aligned&amp;nbsp;&lt;div&gt;with&amp;nbsp;&lt;/div&gt;&lt;div&gt;Minimap2&lt;/div&gt;" style="edgeLabel;html=1;align=center;verticalAlign=middle;resizable=0;points=[];" vertex="1" connectable="0" parent="B2IowBVkWe_c0tPVWHjE-69">
          <mxGeometry x="0.6" y="-1" relative="1" as="geometry">
            <mxPoint x="175" y="-1" as="offset" />
          </mxGeometry>
        </mxCell>
        <mxCell id="B2IowBVkWe_c0tPVWHjE-73" value="" style="edgeStyle=orthogonalEdgeStyle;rounded=0;orthogonalLoop=1;jettySize=auto;html=1;" edge="1" parent="WIyWlLk6GJQsqaUBKTNV-1" source="B2IowBVkWe_c0tPVWHjE-71">
          <mxGeometry relative="1" as="geometry">
            <mxPoint x="515" y="1230" as="targetPoint" />
          </mxGeometry>
        </mxCell>
        <mxCell id="B2IowBVkWe_c0tPVWHjE-71" value="Reads from Prokaryotic contaminants" style="ellipse;whiteSpace=wrap;html=1;strokeColor=#663300;" vertex="1" parent="WIyWlLk6GJQsqaUBKTNV-1">
          <mxGeometry x="535" y="1130" width="120" height="80" as="geometry" />
        </mxCell>
        <mxCell id="B2IowBVkWe_c0tPVWHjE-74" value="" style="edgeStyle=orthogonalEdgeStyle;rounded=0;orthogonalLoop=1;jettySize=auto;html=1;entryX=0;entryY=0.5;entryDx=0;entryDy=0;" edge="1" parent="WIyWlLk6GJQsqaUBKTNV-1" target="B2IowBVkWe_c0tPVWHjE-76">
          <mxGeometry relative="1" as="geometry">
            <mxPoint x="600" y="1270" as="sourcePoint" />
            <mxPoint x="760" y="1270" as="targetPoint" />
            <Array as="points" />
          </mxGeometry>
        </mxCell>
        <mxCell id="B2IowBVkWe_c0tPVWHjE-75" value="Samtools" style="edgeLabel;html=1;align=center;verticalAlign=middle;resizable=0;points=[];" vertex="1" connectable="0" parent="B2IowBVkWe_c0tPVWHjE-74">
          <mxGeometry x="-0.216" relative="1" as="geometry">
            <mxPoint x="-3" as="offset" />
          </mxGeometry>
        </mxCell>
        <mxCell id="B2IowBVkWe_c0tPVWHjE-88" value="" style="edgeStyle=orthogonalEdgeStyle;rounded=0;orthogonalLoop=1;jettySize=auto;html=1;entryX=0.65;entryY=1;entryDx=0;entryDy=0;entryPerimeter=0;" edge="1" parent="WIyWlLk6GJQsqaUBKTNV-1" source="B2IowBVkWe_c0tPVWHjE-76" target="B2IowBVkWe_c0tPVWHjE-77">
          <mxGeometry relative="1" as="geometry">
            <mxPoint x="990" y="1270" as="targetPoint" />
          </mxGeometry>
        </mxCell>
        <mxCell id="B2IowBVkWe_c0tPVWHjE-76" value="Prokaryotic Reads&lt;br&gt;&lt;div&gt;alignment BAM file&lt;/div&gt;" style="rounded=1;whiteSpace=wrap;html=1;strokeColor=#0000FF;" vertex="1" parent="WIyWlLk6GJQsqaUBKTNV-1">
          <mxGeometry x="770" y="1240" width="120" height="60" as="geometry" />
        </mxCell>
        <mxCell id="B2IowBVkWe_c0tPVWHjE-92" value="" style="edgeStyle=orthogonalEdgeStyle;rounded=0;orthogonalLoop=1;jettySize=auto;html=1;exitX=1;exitY=0.398;exitDx=0;exitDy=0;strokeColor=#6666FF;fillColor=#B266FF;entryX=1;entryY=0.5;entryDx=0;entryDy=0;entryPerimeter=0;exitPerimeter=0;" edge="1" parent="WIyWlLk6GJQsqaUBKTNV-1" source="B2IowBVkWe_c0tPVWHjE-77" target="B2IowBVkWe_c0tPVWHjE-93">
          <mxGeometry relative="1" as="geometry">
            <mxPoint x="1260" y="859.9999999999998" as="sourcePoint" />
            <mxPoint x="180" y="730" as="targetPoint" />
            <Array as="points">
              <mxPoint x="1170" y="850" />
              <mxPoint x="1170" y="870" />
              <mxPoint x="1330" y="870" />
              <mxPoint x="1330" y="1390" />
              <mxPoint x="240" y="1390" />
              <mxPoint x="240" y="755" />
            </Array>
          </mxGeometry>
        </mxCell>
        <mxCell id="B2IowBVkWe_c0tPVWHjE-77" value="&lt;font style=&quot;font-size: 14px;&quot;&gt;Final&amp;nbsp;&lt;/font&gt;&lt;div&gt;&lt;font style=&quot;font-size: 14px;&quot;&gt;combined Profile&lt;/font&gt;&lt;/div&gt;" style="ellipse;whiteSpace=wrap;html=1;strokeColor=#0000FF;rounded=1;" vertex="1" parent="WIyWlLk6GJQsqaUBKTNV-1">
          <mxGeometry x="1080" y="810" width="100" height="100" as="geometry" />
        </mxCell>
        <mxCell id="B2IowBVkWe_c0tPVWHjE-128" value="" style="edgeStyle=orthogonalEdgeStyle;rounded=0;orthogonalLoop=1;jettySize=auto;html=1;strokeColor=#006633;entryX=0.5;entryY=0;entryDx=0;entryDy=0;" edge="1" parent="WIyWlLk6GJQsqaUBKTNV-1" source="B2IowBVkWe_c0tPVWHjE-93" target="B2IowBVkWe_c0tPVWHjE-142">
          <mxGeometry relative="1" as="geometry">
            <mxPoint x="90" y="925" as="targetPoint" />
          </mxGeometry>
        </mxCell>
        <mxCell id="B2IowBVkWe_c0tPVWHjE-129" value="Manual Binning" style="edgeLabel;html=1;align=center;verticalAlign=middle;resizable=0;points=[];" vertex="1" connectable="0" parent="B2IowBVkWe_c0tPVWHjE-128">
          <mxGeometry x="0.0344" y="-1" relative="1" as="geometry">
            <mxPoint as="offset" />
          </mxGeometry>
        </mxCell>
        <mxCell id="B2IowBVkWe_c0tPVWHjE-93" value="&lt;font style=&quot;font-size: 18px;&quot;&gt;anvi-interactive&lt;/font&gt;" style="shape=cylinder3;whiteSpace=wrap;html=1;boundedLbl=1;backgroundOutline=1;size=15;strokeColor=#006633;" vertex="1" parent="WIyWlLk6GJQsqaUBKTNV-1">
          <mxGeometry x="35" y="700" width="110" height="110" as="geometry" />
        </mxCell>
        <mxCell id="B2IowBVkWe_c0tPVWHjE-124" value="" style="edgeStyle=orthogonalEdgeStyle;rounded=0;orthogonalLoop=1;jettySize=auto;html=1;entryX=0.014;entryY=0.574;entryDx=0;entryDy=0;entryPerimeter=0;strokeColor=#FF3399;" edge="1" parent="WIyWlLk6GJQsqaUBKTNV-1" source="B2IowBVkWe_c0tPVWHjE-96" target="B2IowBVkWe_c0tPVWHjE-93">
          <mxGeometry relative="1" as="geometry">
            <mxPoint x="-129.9411764705883" y="770" as="targetPoint" />
            <Array as="points">
              <mxPoint x="-195" y="763" />
            </Array>
          </mxGeometry>
        </mxCell>
        <mxCell id="B2IowBVkWe_c0tPVWHjE-96" value="&lt;font style=&quot;font-size: 14px;&quot;&gt;CONCOCT&lt;/font&gt;&lt;div&gt;&lt;font size=&quot;3&quot;&gt;Bins&lt;/font&gt;&lt;/div&gt;" style="rhombus;whiteSpace=wrap;html=1;strokeColor=#FF3399;" vertex="1" parent="WIyWlLk6GJQsqaUBKTNV-1">
          <mxGeometry x="-250" y="460" width="110" height="100" as="geometry" />
        </mxCell>
        <mxCell id="B2IowBVkWe_c0tPVWHjE-98" value="" style="endArrow=classic;html=1;rounded=0;strokeColor=#000000;" edge="1" parent="WIyWlLk6GJQsqaUBKTNV-1">
          <mxGeometry width="50" height="50" relative="1" as="geometry">
            <mxPoint x="900" y="479.41" as="sourcePoint" />
            <mxPoint x="980" y="479.41" as="targetPoint" />
          </mxGeometry>
        </mxCell>
        <mxCell id="B2IowBVkWe_c0tPVWHjE-100" value="Profile 2" style="rounded=1;whiteSpace=wrap;html=1;strokeColor=#0000FF;" vertex="1" parent="WIyWlLk6GJQsqaUBKTNV-1">
          <mxGeometry x="980" y="450" width="120" height="60" as="geometry" />
        </mxCell>
        <mxCell id="B2IowBVkWe_c0tPVWHjE-103" value="Profile 1" style="rounded=1;whiteSpace=wrap;html=1;strokeColor=#0000FF;" vertex="1" parent="WIyWlLk6GJQsqaUBKTNV-1">
          <mxGeometry x="960" y="230" width="120" height="60" as="geometry" />
        </mxCell>
        <mxCell id="B2IowBVkWe_c0tPVWHjE-105" value="" style="endArrow=classic;html=1;rounded=0;strokeColor=#000000;" edge="1" parent="WIyWlLk6GJQsqaUBKTNV-1">
          <mxGeometry width="50" height="50" relative="1" as="geometry">
            <mxPoint x="880" y="259.41" as="sourcePoint" />
            <mxPoint x="960" y="259.41" as="targetPoint" />
          </mxGeometry>
        </mxCell>
        <mxCell id="B2IowBVkWe_c0tPVWHjE-106" value="" style="endArrow=classic;html=1;rounded=0;strokeColor=#000000;" edge="1" parent="WIyWlLk6GJQsqaUBKTNV-1">
          <mxGeometry width="50" height="50" relative="1" as="geometry">
            <mxPoint x="890" y="669.4100000000001" as="sourcePoint" />
            <mxPoint x="970" y="669.4100000000001" as="targetPoint" />
          </mxGeometry>
        </mxCell>
        <mxCell id="B2IowBVkWe_c0tPVWHjE-107" value="Profile 3" style="rounded=1;whiteSpace=wrap;html=1;strokeColor=#0000FF;" vertex="1" parent="WIyWlLk6GJQsqaUBKTNV-1">
          <mxGeometry x="970" y="640" width="120" height="60" as="geometry" />
        </mxCell>
        <mxCell id="B2IowBVkWe_c0tPVWHjE-110" value="" style="endArrow=classic;html=1;rounded=0;strokeColor=#000000;" edge="1" parent="WIyWlLk6GJQsqaUBKTNV-1">
          <mxGeometry width="50" height="50" relative="1" as="geometry">
            <mxPoint x="890" y="849.4100000000001" as="sourcePoint" />
            <mxPoint x="930" y="849" as="targetPoint" />
          </mxGeometry>
        </mxCell>
        <mxCell id="B2IowBVkWe_c0tPVWHjE-113" value="" style="edgeStyle=orthogonalEdgeStyle;rounded=0;orthogonalLoop=1;jettySize=auto;html=1;" edge="1" parent="WIyWlLk6GJQsqaUBKTNV-1" source="B2IowBVkWe_c0tPVWHjE-60" target="B2IowBVkWe_c0tPVWHjE-112">
          <mxGeometry relative="1" as="geometry">
            <mxPoint x="890" y="850" as="sourcePoint" />
            <mxPoint x="1081" y="850" as="targetPoint" />
            <Array as="points" />
          </mxGeometry>
        </mxCell>
        <mxCell id="B2IowBVkWe_c0tPVWHjE-112" value="Profile 4" style="rounded=1;whiteSpace=wrap;html=1;strokeColor=#0000FF;" vertex="1" parent="WIyWlLk6GJQsqaUBKTNV-1">
          <mxGeometry x="930" y="820" width="120" height="60" as="geometry" />
        </mxCell>
        <mxCell id="B2IowBVkWe_c0tPVWHjE-114" value="" style="endArrow=classic;html=1;rounded=0;strokeColor=#000000;" edge="1" parent="WIyWlLk6GJQsqaUBKTNV-1">
          <mxGeometry width="50" height="50" relative="1" as="geometry">
            <mxPoint x="890" y="1049.41" as="sourcePoint" />
            <mxPoint x="970" y="1049.41" as="targetPoint" />
          </mxGeometry>
        </mxCell>
        <mxCell id="B2IowBVkWe_c0tPVWHjE-115" value="Profile 5" style="rounded=1;whiteSpace=wrap;html=1;strokeColor=#0000FF;" vertex="1" parent="WIyWlLk6GJQsqaUBKTNV-1">
          <mxGeometry x="970" y="1020" width="120" height="60" as="geometry" />
        </mxCell>
        <mxCell id="B2IowBVkWe_c0tPVWHjE-116" value="" style="endArrow=classic;html=1;rounded=0;strokeColor=#000000;" edge="1" parent="WIyWlLk6GJQsqaUBKTNV-1">
          <mxGeometry width="50" height="50" relative="1" as="geometry">
            <mxPoint x="890" y="1269.41" as="sourcePoint" />
            <mxPoint x="970" y="1269.41" as="targetPoint" />
          </mxGeometry>
        </mxCell>
        <mxCell id="B2IowBVkWe_c0tPVWHjE-121" value="Profile 5" style="rounded=1;whiteSpace=wrap;html=1;strokeColor=#0000FF;" vertex="1" parent="WIyWlLk6GJQsqaUBKTNV-1">
          <mxGeometry x="970" y="1240" width="120" height="60" as="geometry" />
        </mxCell>
        <mxCell id="B2IowBVkWe_c0tPVWHjE-131" value="" style="edgeStyle=orthogonalEdgeStyle;rounded=0;orthogonalLoop=1;jettySize=auto;html=1;strokeColor=#006633;exitX=0.5;exitY=1;exitDx=0;exitDy=0;exitPerimeter=0;entryX=0.5;entryY=0;entryDx=0;entryDy=0;entryPerimeter=0;" edge="1" parent="WIyWlLk6GJQsqaUBKTNV-1" source="B2IowBVkWe_c0tPVWHjE-142" target="B2IowBVkWe_c0tPVWHjE-143">
          <mxGeometry relative="1" as="geometry">
            <mxPoint x="90" y="1005" as="sourcePoint" />
            <mxPoint x="90" y="1085" as="targetPoint" />
          </mxGeometry>
        </mxCell>
        <mxCell id="B2IowBVkWe_c0tPVWHjE-132" value="anvi-refine" style="edgeLabel;html=1;align=center;verticalAlign=middle;resizable=0;points=[];" vertex="1" connectable="0" parent="B2IowBVkWe_c0tPVWHjE-131">
          <mxGeometry x="0.0412" y="3" relative="1" as="geometry">
            <mxPoint as="offset" />
          </mxGeometry>
        </mxCell>
        <mxCell id="B2IowBVkWe_c0tPVWHjE-134" value="" style="edgeStyle=orthogonalEdgeStyle;rounded=0;orthogonalLoop=1;jettySize=auto;html=1;strokeColor=#006633;exitX=0.5;exitY=1;exitDx=0;exitDy=0;" edge="1" parent="WIyWlLk6GJQsqaUBKTNV-1" source="B2IowBVkWe_c0tPVWHjE-143">
          <mxGeometry relative="1" as="geometry">
            <mxPoint x="90" y="1165" as="sourcePoint" />
            <mxPoint x="90" y="1270" as="targetPoint" />
          </mxGeometry>
        </mxCell>
        <mxCell id="B2IowBVkWe_c0tPVWHjE-136" value="Reads aligned&amp;nbsp;&lt;div&gt;with&amp;nbsp;&lt;/div&gt;&lt;div&gt;Minimap2&lt;/div&gt;" style="edgeLabel;html=1;align=center;verticalAlign=middle;resizable=0;points=[];" vertex="1" connectable="0" parent="B2IowBVkWe_c0tPVWHjE-134">
          <mxGeometry x="-0.3188" y="-1" relative="1" as="geometry">
            <mxPoint x="1" y="10" as="offset" />
          </mxGeometry>
        </mxCell>
        <mxCell id="B2IowBVkWe_c0tPVWHjE-140" value="" style="edgeStyle=orthogonalEdgeStyle;rounded=0;orthogonalLoop=1;jettySize=auto;html=1;strokeColor=#006633;entryX=0.5;entryY=0;entryDx=0;entryDy=0;" edge="1" parent="WIyWlLk6GJQsqaUBKTNV-1" target="B2IowBVkWe_c0tPVWHjE-154">
          <mxGeometry relative="1" as="geometry">
            <mxPoint x="89.41" y="1260" as="sourcePoint" />
            <mxPoint x="89.41" y="1365" as="targetPoint" />
          </mxGeometry>
        </mxCell>
        <mxCell id="B2IowBVkWe_c0tPVWHjE-153" value="Aligned reads&amp;nbsp;&lt;div&gt;Extracted&amp;nbsp;&lt;/div&gt;&lt;div&gt;with&amp;nbsp;&lt;/div&gt;&lt;div&gt;Samtools&lt;/div&gt;" style="edgeLabel;html=1;align=center;verticalAlign=middle;resizable=0;points=[];" vertex="1" connectable="0" parent="B2IowBVkWe_c0tPVWHjE-140">
          <mxGeometry x="-0.6045" y="2" relative="1" as="geometry">
            <mxPoint x="-1" y="19" as="offset" />
          </mxGeometry>
        </mxCell>
        <mxCell id="B2IowBVkWe_c0tPVWHjE-142" value="Porifera Bin" style="rounded=1;whiteSpace=wrap;html=1;strokeColor=#006633;" vertex="1" parent="WIyWlLk6GJQsqaUBKTNV-1">
          <mxGeometry x="30" y="930" width="120" height="60" as="geometry" />
        </mxCell>
        <mxCell id="B2IowBVkWe_c0tPVWHjE-143" value="Final&lt;div&gt;Porifera Bin&lt;/div&gt;" style="rounded=1;whiteSpace=wrap;html=1;strokeColor=#006633;" vertex="1" parent="WIyWlLk6GJQsqaUBKTNV-1">
          <mxGeometry x="30" y="1090" width="120" height="60" as="geometry" />
        </mxCell>
        <mxCell id="B2IowBVkWe_c0tPVWHjE-145" value="" style="edgeStyle=orthogonalEdgeStyle;rounded=0;orthogonalLoop=1;jettySize=auto;html=1;strokeColor=#006633;" edge="1" parent="WIyWlLk6GJQsqaUBKTNV-1">
          <mxGeometry relative="1" as="geometry">
            <mxPoint x="90" y="1065" as="sourcePoint" />
            <mxPoint x="-80" y="1060" as="targetPoint" />
            <Array as="points">
              <mxPoint x="90" y="1060" />
            </Array>
          </mxGeometry>
        </mxCell>
        <mxCell id="B2IowBVkWe_c0tPVWHjE-147" value="Bin containing&lt;div&gt;Contaminants&lt;/div&gt;" style="rounded=1;whiteSpace=wrap;html=1;strokeColor=#006633;" vertex="1" parent="WIyWlLk6GJQsqaUBKTNV-1">
          <mxGeometry x="-200" y="1030" width="120" height="60" as="geometry" />
        </mxCell>
        <mxCell id="B2IowBVkWe_c0tPVWHjE-149" value="Bins containing&lt;div&gt;Contaminants&lt;/div&gt;" style="rounded=1;whiteSpace=wrap;html=1;strokeColor=#006633;" vertex="1" parent="WIyWlLk6GJQsqaUBKTNV-1">
          <mxGeometry x="-200" y="880" width="120" height="60" as="geometry" />
        </mxCell>
        <mxCell id="B2IowBVkWe_c0tPVWHjE-152" value="" style="edgeStyle=orthogonalEdgeStyle;rounded=0;orthogonalLoop=1;jettySize=auto;html=1;strokeColor=#006633;" edge="1" parent="WIyWlLk6GJQsqaUBKTNV-1">
          <mxGeometry relative="1" as="geometry">
            <mxPoint x="90" y="910" as="sourcePoint" />
            <mxPoint x="-80" y="905" as="targetPoint" />
            <Array as="points">
              <mxPoint x="90" y="905" />
            </Array>
          </mxGeometry>
        </mxCell>
        <mxCell id="B2IowBVkWe_c0tPVWHjE-156" value="" style="edgeStyle=orthogonalEdgeStyle;rounded=0;orthogonalLoop=1;jettySize=auto;html=1;strokeColor=#006633;" edge="1" parent="WIyWlLk6GJQsqaUBKTNV-1" source="B2IowBVkWe_c0tPVWHjE-154" target="B2IowBVkWe_c0tPVWHjE-155">
          <mxGeometry relative="1" as="geometry" />
        </mxCell>
        <mxCell id="B2IowBVkWe_c0tPVWHjE-157" value="Flye Assembly" style="edgeLabel;html=1;align=center;verticalAlign=middle;resizable=0;points=[];" vertex="1" connectable="0" parent="B2IowBVkWe_c0tPVWHjE-156">
          <mxGeometry x="-0.0435" y="2" relative="1" as="geometry">
            <mxPoint as="offset" />
          </mxGeometry>
        </mxCell>
        <mxCell id="B2IowBVkWe_c0tPVWHjE-154" value="&lt;font style=&quot;font-size: 14px;&quot;&gt;Decontaminated&lt;/font&gt;&lt;div&gt;&lt;font size=&quot;3&quot;&gt;Porifera&amp;nbsp;&lt;/font&gt;&lt;/div&gt;&lt;div&gt;&lt;font size=&quot;3&quot;&gt;Reads&lt;/font&gt;&lt;/div&gt;" style="ellipse;whiteSpace=wrap;html=1;aspect=fixed;strokeColor=#006633;" vertex="1" parent="WIyWlLk6GJQsqaUBKTNV-1">
          <mxGeometry x="30" y="1360" width="120" height="120" as="geometry" />
        </mxCell>
        <mxCell id="B2IowBVkWe_c0tPVWHjE-155" value="&lt;font style=&quot;font-size: 14px;&quot;&gt;Decontaminated&lt;/font&gt;&lt;div&gt;&lt;font size=&quot;3&quot;&gt;Assembly&lt;/font&gt;&lt;/div&gt;" style="ellipse;whiteSpace=wrap;html=1;strokeColor=#006633;fillColor=#006633;" vertex="1" parent="WIyWlLk6GJQsqaUBKTNV-1">
          <mxGeometry x="30" y="1590" width="120" height="110" as="geometry" />
        </mxCell>
      </root>
    </mxGraphModel>
  </diagram>
</mxfile>
